<?xml version="1.0" encoding="utf-8"?>
<!-- Generator: Adobe Illustrator 24.0.2, SVG Export Plug-In . SVG Version: 6.00 Build 0)  -->
<svg version="1.1" fill="rgb(235, 184, 94)" xmlns="http://www.w3.org/2000/svg" xmlns:xlink="http://www.w3.org/1999/xlink" x="0px" y="0px"
	 viewBox="0 0 577.42 170.97" style="enable-background:new 0 0 577.42 170.97;" xml:space="preserve">
<g id="_x31_">
	<g>
		<path d="M498.82,30.85c0.72,1.37,1.41,2.81,2.03,4.35c1.43-0.75,2.4-2.12,2.69-4C501.97,31.17,500.39,31.05,498.82,30.85z"/>
		<path d="M146.35,149.09c0.46,0.31,0.93,0.62,1.4,0.92c14.76,0.33,29.49,1.12,44.22,2.08c3.81-0.18,8.25-0.04,12.73,0.86
			c7.87,0.55,15.75,1.13,23.62,1.7c0.01-0.05,0.02-0.1,0.03-0.15c0.95,0.08,1.9,0.16,2.85,0.24c0.01,0.04,0.02,0.08,0.03,0.12
			c28.81,2.05,57.58,3.41,86.47,2.87c2.62-0.05,5.24-0.12,7.85-0.18c-0.17-0.06-0.33-0.11-0.42-0.14c0.09,0.03,0.24,0.08,0.42,0.14
			c19.58-0.5,39.14-1.43,58.71-2.25c0.7-0.07,1.4-0.13,2.11-0.21c0,0,3.04-0.07,6.9-0.16c3.99-0.16,7.99-0.31,11.99-0.44
			c28.71-0.97,58.13-2.12,86.72,1.31c5.8,0.7,11.56,1.62,17.32,2.64c2.36-0.15,3.85-0.27,3.92-0.28c0,0.35,0.04,0.68,0.11,1
			c6.12,1.12,12.23,2.32,18.35,3.46c4.73-1.15,8.6-2.96,8.96-4.49c1.87-8.02,4.12-15.95,6.59-23.81c0.01-0.05,0.03-0.11,0.05-0.17
			c3.94-3.03,8.14-5.57,13.17-7.5c0,0-0.31-3.25-0.46-4.87c-0.85-0.82-12.81-12.73-9.25-26.95c1.17-4.69,3.65-8.12,5.65-10.32
			c0-0.01-0.01-0.03-0.01-0.05c-0.88-0.44-1.68-0.9-2.45-1.38c-0.09,0.01-0.16,0.01-0.25,0.02v-0.18
			c-3.79-2.39-6.23-5.33-8.87-10.42c2.27-0.22,4.54-0.43,6.82-0.65c-0.65-2.23-1.15-4.48-1.14-6.78c-0.24-0.41-0.46-0.83-0.72-1.23
			c-1.01,0.1-1.86,0.18-1.86,0.18c-0.45-1.22-0.82-2.45-1.11-3.68c-6.64-6.42-16.43-9.09-15.29-15.99c1.05-3.61,5.72-1.07,10.9,0.55
			c0.23-0.64,0.52-1.24,0.83-1.71c-6.68-1-1.11-11.35-5.19-12.59c-5.23,0.49-10.62-0.57-15.85-0.04
			c-21.31,2.14-39.4,2.55-60.89,0.05c-0.95-0.1-1.88-0.16-2.82-0.24c-10.38-0.81-20.01-0.01-29.79,2.43
			c0.77,1.04,1.56,1.99,2.36,2.91c-7.86,1.99-15.79,3.4-24.1,1.94c-5.1-0.99-10.21-1.99-15.34-2.9c-5.12-0.89-10.25-1.68-15.41-2.32
			c-10.32-1.26-20.75-1.97-31.32-1.25c-11.7,0.95-23.25,1.31-34.96,1.18c-6.4-1.33-12.8-2.68-19.23-3.88
			c-9.1-1.69-18.19-2.89-27.44-3.19c-4.11-0.14-8.46-0.22-12.65,0.3c-3.43-0.33-6.86-0.48-10.29-0.35
			c-2.61,0.44-7.34-3.72-10.22-4.9c-7.38-3.33-14.78-4.91-22.12-5.22c-7.34-0.3-14.62,0.72-21.79,2.47c1.27,1.08,2.53,2.12,3.78,3.1
			c11.35,1.41,22.75,2.82,34.36,4.26c6.34,0.76,12.75,1.51,19.22,2.24c-2.64,0.95-5.13,2.31-7.32,4.27
			c-0.65,0.58-1.17,1.31-1.56,2.11c-1.34-0.43-2.68-1-4.01-1.76c-0.27-1.61-4.2-0.95-3.43-4.38c-8.12-0.28-17.3,1.18-25.69-0.62
			c-3.58-0.45-7.5-2.94-11.57-6.12c-7.42-0.92-14.81-1.83-22.24-2.75c-7.43-0.84-14.89-1.68-22.42-2.53
			c-15.07-1.69-30.41-3.02-46.4-4.19c-7.85-0.11-16.56,1.62-24.2,3.11c12.29,3.08,24.72,5.22,37.23,6.99
			c11.16-3.35,22.09-5.44,32.59,1.18c2.37,1.14,4.72,2.2,7.05,3.16c-6.64-0.61-13.28-1.27-19.89-1.98
			c-6.6-0.68-13.19-1.45-19.75-2.36c-6.59,1.99-13.28,4.34-20,5.77c0.16,0.09,0.3,0.18,0.47,0.26c5.69,0.98,11.41,1.94,17.13,2.72
			c9.91-2.96,19.62-4.96,29.04-0.71c1.17,0.53,2.35,1.13,3.51,1.87c2.36,1.14,4.71,2.19,7.03,3.16c-8.18-0.76-16.35-1.59-24.46-2.46
			c-5.04-0.56-10.09-1.16-15.12-1.86c-2.9,0.91-5.85,1.83-8.78,2.74c0.39,0.34,0.8,0.67,1.18,1.05
			c2.95,1.09,13.87,18.49,10.88,24.04c-10.05,1.67-22.45,2.12-32.33,2.25c-9.87,0.14-17.21,0.06-17.04,0.88
			c0.03,6.58,35.94,8.19,34.95,10.05c-1.78,1.1-3.58,2.08-5.38,2.98c2.07,0.94,4.11,1.92,6.04,3.11c4.2,0.82,9.06-1.8,12.28,0.91
			c10.92,7.87,20.65,2.7,32.19,7.11c3.26,1.6,6.84,3.48,10.58,5.5c-2.72,0.41-5.43,0.84-8.15,1.34l-0.18,0.03
			c-6.42-1.67-12.9-3.58-19.65-6.85c-14.47-5.57-30.65,0.96-42.92-6.55c-0.23-0.15-0.45-0.26-0.67-0.39
			c-23.67,7.5-49.68,4.02-72.75,14.46c0.27,5.11,1.39,9.87,3.06,14.41c22.99-1,46.57-8.91,68.98-4.54c2.9,0.88,5.79,1.67,8.67,2.41
			c-1.35,0.2-2.7,0.44-4.04,0.73c-3.6-0.19-7.2-0.31-10.8-0.35c-6.81-0.02-13.6,0.23-20.34,0.8c-13.49,1.09-26.73,3.59-39.51,7.63
			c0.93,1.83,1.94,3.63,3,5.41c12.76-1.76,25.32-4.47,37.37,1.95c-7.24,1.51-12.84-0.29-19.89,0.91c0.2,0.91,0.41,2.24,1.12,2.7
			c-4.85-0.85-10.43-1.44-15.61-0.85c2.51,3.78,5.21,7.47,7.9,11.17c3.24,2.63,7.07,1.81,11.24,2.57c8.58-0.41,16.75-1.54,24.9-2.6
			c4.37-0.55,8.74-1.07,13.17-1.38c7.36,3.59,17.44,4.11,24.89,5.18c2.92,0.42,5.86,0.74,8.8,0.99c-5.17,1.2-10.35,2.46-15.53,3.73
			c2.66,0.08,5.35,0.28,8.1,0.63c12.15,1.92,24.16,3.28,36.1,4.42C143.03,148.8,144.69,148.94,146.35,149.09z"/>
	</g>
</g>
<g id="Designed_by_Vecteezy">
</g>
</svg>
